<svg xmlns="http://www.w3.org/2000/svg" viewBox="0 0 512 512"><path d="M437.333 32H74.667C33.493 32 0 65.493 0 106.667V320c0 41.173 33.493 74.667 74.667 74.667h25.387L65.11 464.555c-2.091 4.203-1.195 9.301 2.219 12.523A10.672 10.672 0 0074.667 480c1.813 0 3.627-.448 5.291-1.408l146.88-83.925h210.496C478.507 394.667 512 361.173 512 320V106.667C512 65.493 478.507 32 437.333 32zm53.312 287.979c0 29.397-23.936 53.333-53.333 53.333H223.979c-1.856 0-3.669.491-5.291 1.408L99.947 442.581l26.923-53.824c1.664-3.285 1.472-7.232-.469-10.368s-5.376-5.056-9.067-5.056H74.667c-29.397 0-53.333-23.936-53.333-53.333V106.667c0-29.397 23.936-53.333 53.333-53.333v-.021h362.645c29.397 0 53.333 23.936 53.333 53.333v213.333z"/></svg>