<svg xmlns="http://www.w3.org/2000/svg" viewBox="0 0 512 512"><path d="M437.333 32H74.667C33.493 32 0 65.493 0 106.667V320c0 36.672 26.56 67.264 61.483 73.493-16.299 26.496-34.901 51.179-35.115 51.477-.064.107-.149.192-.213.299-3.115 3.819-4.821 8.533-4.821 13.397 0 11.755 9.579 21.333 21.333 21.333 2.923 0 5.845-.683 8.725-2.005 27.051-7.68 112.832-34.901 163.947-83.328h221.995C478.507 394.667 512 361.173 512 320V106.667C512 65.493 478.507 32 437.333 32zm53.334 287.979c0 29.397-23.936 53.333-53.333 53.333H211.008a10.696 10.696 0 00-7.531 3.115c-48.832 48.555-140.864 76.245-158.827 81.301-.704.192-1.259.597-1.92.96.469-.512.875-1.067 1.237-1.643 4.117-5.483 27.861-37.547 44.8-67.861a10.633 10.633 0 00-.107-10.603 10.674 10.674 0 00-9.195-5.269h-4.8c-29.397 0-53.333-23.936-53.333-53.333V106.645c0-29.397 23.936-53.333 53.333-53.333h362.667c29.397 0 53.333 23.936 53.333 53.333v213.334z"/></svg>