<svg xmlns="http://www.w3.org/2000/svg" width="50" height="50"><path d="M9 4C6.25 4 4 6.25 4 9v32c0 2.75 2.25 5 5 5h16.832c.11.02.219.02.328 0h5.672c.11.02.219.02.328 0H41c2.75 0 5-2.25 5-5V9c0-2.75-2.25-5-5-5zm0 2h32c1.668 0 3 1.332 3 3v32c0 1.668-1.332 3-3 3h-8V30h3.82l1.403-7H33v-2c0-.559.055-.602.238-.723.188-.12.766-.277 1.762-.277h3v-5.629l-.57-.273S35.133 13 32 13c-2.25 0-4.098.895-5.281 2.375C25.535 16.855 25 18.832 25 21v2h-3v7h3v14H9c-1.668 0-3-1.332-3-3V9c0-1.668 1.332-3 3-3zm23 9c2.078 0 3.387.457 4 .7V18h-1c-1.152 0-2.074.094-2.848.598C31.375 19.105 31 20.063 31 21v4h4.777l-.597 3H31v16h-4V28h-3v-3h3v-4c0-1.832.465-3.355 1.281-4.375C29.098 15.605 30.25 15 32 15zm0 0" fill="#1877f2"/></svg>