<svg xmlns="http://www.w3.org/2000/svg" width="50" height="50"><path d="M13 5l3 9v6h2v-6l3-9h-2l-2 6-2-6zm11 4c-1.066 0-1.59.168-2.242.703-.625.527-.797.934-.758 2.297v5c0 .996.164 1.652.766 2.234.625.582 1.214.766 2.234.766 1.066 0 1.648-.184 2.25-.766.625-.558.75-1.238.75-2.234v-5c0-.883-.156-1.719-.762-2.277C25.613 9.148 24.968 9 24 9zm5 0v9c0 .973.98 2 2 2s1.559-.512 2-1v1h2V9h-2v8c-.012.684-.816 1-1 1-.207 0-1-.043-1-1V9zm-5 2c.3 0 1-.004 1 1v5c0 .969-.676 1-1 1-.3 0-1-.012-1-1v-5c0-.816.434-1 1-1zm1.457 10.922A847.33 847.33 0 0010.332 22a7.15 7.15 0 00-2.008.328 5.795 5.795 0 00-1.476.735 5.216 5.216 0 00-1.356 1.39 5.5 5.5 0 00-.61 1.223 6.859 6.859 0 00-.382 2.152 318.05 318.05 0 000 9.844c.02.625.102 1.242.266 1.848.316 1.14.921 2.207 1.804 3.007a5.618 5.618 0 001.969 1.16 6.218 6.218 0 001.793.313c10.11.188 20.227.156 30.336 0a7.15 7.15 0 002.008-.328 5.795 5.795 0 001.476-.734 5.29 5.29 0 001.36-1.391c.25-.379.453-.793.61-1.223a7.011 7.011 0 00.378-2.152c.05-3.418.016-6.84 0-10.254a6.936 6.936 0 00-.36-2.172 5.365 5.365 0 00-.593-1.234 5.204 5.204 0 00-1.336-1.407 5.573 5.573 0 00-1.535-.777A7.17 7.17 0 0040.582 22c-5.039-.023-10.082-.066-15.125-.078zm7.637 2.015c2.511.004 5.023.024 7.531.063.398.012.797.059 1.184.156.62.164 1.207.473 1.656.934.152.156.285.324.406.508.168.261.3.547.395.843.156.461.218.946.234 1.434.05 3.418.05 6.836 0 10.25a4.939 4.939 0 01-.234 1.434 3.537 3.537 0 01-.395.843 3.406 3.406 0 01-.406.508c-.45.461-1.035.77-1.656.934a5.494 5.494 0 01-1.184.156c-10.059.156-20.121.063-30.184 0a4.204 4.204 0 01-1.261-.207 3.657 3.657 0 01-.739-.352 3.255 3.255 0 01-.527-.394c-.617-.563-1.023-1.317-1.234-2.113a5.9 5.9 0 01-.18-1.309c-.05-3.227-.016-6.457 0-9.688.008-.492.07-.98.219-1.449a3.578 3.578 0 01.816-1.398c.465-.477 1.067-.785 1.707-.945A5.51 5.51 0 0110.504 24c7.531 0 15.062-.086 22.59-.063zM11 26v2h2v12h2V28h2v-2zm15 0v14h2v-1c.387.45.95 1.012 2 1 .621-.008 1.102-.508 1.422-.902.328-.395.578-.856.578-1.598v-6c0-.863-.273-1.45-.621-1.89-.348-.438-.856-.672-1.504-.672a2.13 2.13 0 00-.973.257c-.328.16-.672.446-.902.805v-4zm-8 3v9c0 .625.27.934.5 1.234.258.328.809.766 1.293.766.39 0 .812.016 1.227-.219.418-.207.609-.343.98-.781v1h2V29h-2v8c-.18.234-.188.992-1 1-.73.008-1-.77-1-1v-8zm18.2 0c-.95 0-1.829.23-2.298.71-.582.599-.898 1.27-.898 2.177v4.707c0 1.02.277 1.812.809 2.39.53.578 1.273.86 2.222.86 1.04 0 1.832-.258 2.34-.817.54-.53.625-1.343.625-2.433V36h-2v.5c0 .602-.059 1.066-.2 1.23-.136.184-.394.266-.8.27-.367.004-.645-.098-.781-.328-.145-.211-.219-.567-.219-1.125V35h4v-3.113c0-1-.164-1.621-.68-2.153-.504-.53-1.172-.734-2.12-.734zM29 30.5c.55 0 1 .5 1 1.5v5.023c0 .551-.45.977-1 .977s-.992-.21-1-.5v-6c.008-.504.45-1 1-1zm7 .5c.55 0 1 .387 1 1v1h-2v-1c.008-.535.45-1 1-1zm0 0" fill-rule="evenodd" fill="#ff0400"/></svg>