<svg xmlns="http://www.w3.org/2000/svg" width="50" height="50"><path d="M9 4C6.25 4 4 6.25 4 9v32c0 2.75 2.25 5 5 5h32c2.75 0 5-2.25 5-5V9c0-2.75-2.25-5-5-5H9zm0 2h32c1.668 0 3 1.332 3 3v32c0 1.668-1.332 3-3 3H9c-1.668 0-3-1.332-3-3V9c0-1.668 1.332-3 3-3zm6 2c.414 1.013 2.402 5.381 3 6.994V19h2v-4l3-7h-2.4L19 12l-1.6-4H15zm10 3c-1.006 0-1.771.275-2.332.945-.433.495-.666 1.29-.666 2.336L22 15.727c0 1.04.206 1.76.639 2.252C23.2 18.646 24.11 19 25 19c.889 0 1.816-.354 2.379-1.023.426-.49.621-1.21.621-2.25v-1.452c0-1.048-.242-1.835-.668-2.33C26.77 11.275 25.889 11 25 11zm4 0v5.838c0 .66.098 1.108.238 1.396.23.473.69.716 1.352.737.91.03 1.595-.561 2.41-1.346V19h2v-8h-2v5.375c-.455.539-.979 1.018-1.39 1.018-.274 0-.56-.126-.61-.393v-6h-2zm-4 1.62c.552 0 1 .457 1 1.02v2.807c0 .563-.448 1.022-1 1.022s-1-.458-1-1.022v-2.806c0-.563.448-1.022 1-1.022zM24.99 22s-6.71 0-11.19.32c-.63.07-1.99.08-3.21 1.33-.96.94-1.27 3.1-1.27 3.1S9 28.28 9 30.81v2.37c0 2.53.32 4.06.32 4.06s.31 2.16 1.27 3.11c1.22 1.24 2.82 1.2 3.53 1.33C16.68 41.92 25 42 25 42s6.72-.01 11.2-.33c.63-.07 1.99-.08 3.21-1.33.96-.94 1.27-3.1 1.27-3.1s.32-1.53.32-4.06v-2.37c0-2.53-.32-4.06-.32-4.06s-.31-2.16-1.27-3.1c-1.22-1.25-2.58-1.26-3.21-1.33C31.72 22 25.01 22 25.01 22h-.02zM12 26h6v2h-2v10h-2V28h-2v-2zm13 0h2v4.38c.75-.88 1.15-1.39 2.12-1.38.76.01 1.37.44 1.62 1.22.13.42.26 1.17.26 2.16v2.75c-.01.88-.1 1.27-.22 1.69-.25.78-.9 1.18-1.66 1.18-.67 0-1.49-.47-2.12-1.25V38h-2V26zm-7 3h2v6.89c.05.29.26.4.52.4.4 0 1.04-.44 1.48-1.02V29h2v9h-2v-1.37c-.79.86-1.73 1.37-2.46 1.37-.64 0-1.09-.28-1.31-.79-.13-.32-.23-.8-.23-1.52V29zm17.03 0c.99 0 1.78.32 2.33.92.41.44.64 1.12.64 2.06V34h-4v1.8c0 .46.45.84 1 .84s1-.38 1-.84V35h2c0 .51-.06.94-.07 1.1-.07.35-.23.67-.47.95-.54.64-1.35.95-2.38.95-1.04 0-1.82-.3-2.39-.9-.42-.43-.69-1.09-.69-2.02v-3.06c0-.94.24-1.66.67-2.1.57-.6 1.35-.92 2.36-.92zM35 30.45c-.55 0-1 .37-1 .84v1.32h2v-1.32c0-.47-.45-.84-1-.84zm-6.78.3c-.154 0-.38.078-.607.195a2.92 2.92 0 00-.332.201 2.164 2.164 0 00-.281.235v4.369c.08.08.176.154.281.219.316.194.707.31.94.31.202 0 .36-.049.482-.168a.66.66 0 00.11-.142c.063-.11.11-.254.14-.436.031-.181.047-.401.047-.664v-2.738a3.94 3.94 0 00-.047-.66c-.062-.357-.186-.558-.383-.653a.799.799 0 00-.35-.068z"/></svg>